<?xml version="1.0" encoding="UTF-8"?>
<svg version="1.1" xmlns="http://www.w3.org/2000/svg" width="68" height="68">
<path d="M0 0 C0.5878125 0.13921875 1.175625 0.2784375 1.78125 0.421875 C4.76389297 0.86297009 7.50229195 0.53877004 10.5 0.25 C15.24477243 -0.18380776 19.28609443 0.01056383 24 0.75 C26.01618332 0.55605852 27.99855559 0.25022287 30 -0.05859375 C33.12887824 -0.35803718 35.92078962 0.17264805 39 0.75 C39 3.72 39 6.69 39 9.75 C39.99 9.75 40.98 9.75 42 9.75 C42 6.78 42 3.81 42 0.75 C43.91408757 0.50020555 45.83151611 0.27591986 47.75 0.0625 C49.35101563 -0.12892578 49.35101563 -0.12892578 50.984375 -0.32421875 C54 -0.25 54 -0.25 56.359375 0.94921875 C58.39224139 3.18053162 58.53981982 4.26351314 58.5 7.25 C58.51546875 8.41015625 58.51546875 8.41015625 58.53125 9.59375 C58 11.75 58 11.75 56.35864258 13.36425781 C53.30988313 15.15545527 51.25473639 15.10786349 47.73046875 15.078125 C46.51166016 15.07296875 45.29285156 15.0678125 44.03710938 15.0625 C42.76673828 15.041875 41.49636719 15.02125 40.1875 15 C38.92873047 14.99484375 37.66996094 14.9896875 36.37304688 14.984375 C30.47296553 14.93461153 24.83730706 14.67258016 19 13.75 C19 10.78 19 7.81 19 4.75 C18.34 4.75 17.68 4.75 17 4.75 C16.67 7.72 16.34 10.69 16 13.75 C14.35 13.75 12.7 13.75 11 13.75 C11 10.78 11 7.81 11 4.75 C10.34 4.75 9.68 4.75 9 4.75 C9 7.72 9 10.69 9 13.75 C8.13375 13.729375 7.2675 13.70875 6.375 13.6875 C3.02103857 13.62590571 3.02103857 13.62590571 -0.0625 14.5 C-3 14.75 -3 14.75 -5.875 13.1875 C-8 10.75 -8 10.75 -8.625 7.8125 C-7.61765364 2.87650285 -5.34099337 -0.44508278 0 0 Z M-3 8.75 C1 9.75 1 9.75 1 9.75 Z M27 8.75 C27 9.41 27 10.07 27 10.75 C27.99 10.42 28.98 10.09 30 9.75 C29.01 9.42 28.02 9.09 27 8.75 Z M50 8.75 C50.33 9.41 50.66 10.07 51 10.75 C51.66 10.42 52.32 10.09 53 9.75 C52.01 9.42 51.02 9.09 50 8.75 Z " fill="#070707" transform="translate(9,28.25)"/>
<path d="M0 0 C0.58265625 0.14308594 1.1653125 0.28617188 1.765625 0.43359375 C5.87840026 1.01599724 10.0155172 0.16071572 14.109375 -0.38671875 C17 -0.25 17 -0.25 18.91015625 1.58984375 C20 3.75 20 3.75 19.6875 6 C19.3471875 6.86625 19.3471875 6.86625 19 7.75 C19 6.76 19 5.77 19 4.75 C18.34 4.75 17.68 4.75 17 4.75 C16.67 7.72 16.34 10.69 16 13.75 C14.35 13.75 12.7 13.75 11 13.75 C11 10.78 11 7.81 11 4.75 C10.34 4.75 9.68 4.75 9 4.75 C9 7.72 9 10.69 9 13.75 C8.13375 13.729375 7.2675 13.70875 6.375 13.6875 C3.02103857 13.62590571 3.02103857 13.62590571 -0.0625 14.5 C-3 14.75 -3 14.75 -5.875 13.1875 C-8 10.75 -8 10.75 -8.625 7.8125 C-7.61765364 2.87650285 -5.34099337 -0.44508278 0 0 Z M-3 8.75 C1 9.75 1 9.75 1 9.75 Z " fill="#121212" transform="translate(9,28.25)"/>
<path d="M0 0 C0.9075 0.185625 1.815 0.37125 2.75 0.5625 C5.68314324 0.95734621 7.2644657 0.94691572 10 0 C9.34 1.98 8.68 3.96 8 6 C9.32 6.66 10.64 7.32 12 8 C11.01 8 10.02 8 9 8 C9 8.99 9 9.98 9 11 C10.32 11 11.64 11 13 11 C12.938125 10.21625 12.87625 9.4325 12.8125 8.625 C12.874375 7.75875 12.93625 6.8925 13 6 C13.99 5.34 14.98 4.68 16 4 C16 7.3 16 10.6 16 14 C10.62374766 14.84888195 6.34629602 15.0024305 1 14 C1.02320313 13.30132812 1.04640625 12.60265625 1.0703125 11.8828125 C1.08835937 10.97273438 1.10640625 10.06265625 1.125 9.125 C1.15980469 7.76761719 1.15980469 7.76761719 1.1953125 6.3828125 C1.24324836 3.81193006 1.24324836 3.81193006 -1 2 C-0.67 1.34 -0.34 0.68 0 0 Z " fill="#0D0D0D" transform="translate(27,28)"/>
<path d="M0 0 C3.63 0.33 7.26 0.66 11 1 C11 3.97 11 6.94 11 10 C11.99 10 12.98 10 14 10 C14 8.02 14 6.04 14 4 C14.33 4 14.66 4 15 4 C15.33 7.3 15.66 10.6 16 14 C9.375 15.125 9.375 15.125 6 14 C5.67 11.03 5.34 8.06 5 5 C4.34 6.98 3.68 8.96 3 11 C-0.16115776 9.63016497 -0.9927092 9.0109362 -3 6 C-2.01 4.02 -1.02 2.04 0 0 Z " fill="#131313" transform="translate(37,28)"/>
<path d="M0 0 C1.42944945 2.35438733 2.08661261 3.48032433 1.625 6.25 C1.41875 6.8275 1.2125 7.405 1 8 C1 7.01 1 6.02 1 5 C0.34 5 -0.32 5 -1 5 C-1.33 7.97 -1.66 10.94 -2 14 C-3.65 14 -5.3 14 -7 14 C-7 11.03 -7 8.06 -7 5 C-7.66 5 -8.32 5 -9 5 C-9.33 3.68 -9.66 2.36 -10 1 C-6.78548731 -0.60725635 -3.56387464 -0.05748185 0 0 Z " fill="#262626" transform="translate(27,28)"/>
<path d="M0 0 C1.32 0 2.64 0 4 0 C4 0.66 4 1.32 4 2 C4.99 2 5.98 2 7 2 C6.67 4.31 6.34 6.62 6 9 C3.36 9 0.72 9 -2 9 C-2.33 6.69 -2.66 4.38 -3 2 C-2.01 2 -1.02 2 0 2 C0 1.34 0 0.68 0 0 Z " fill="#131313" transform="translate(47,19)"/>
<path d="M0 0 C2.64 0.33 5.28 0.66 8 1 C7.67 4.96 7.34 8.92 7 13 C7.99 13 8.98 13 10 13 C9.67 13.66 9.34 14.32 9 15 C8.01 14.67 7.02 14.34 6 14 C5.67 11.03 5.34 8.06 5 5 C4.34 6.98 3.68 8.96 3 11 C-0.16115776 9.63016497 -0.9927092 9.0109362 -3 6 C-2.01 4.02 -1.02 2.04 0 0 Z " fill="#242424" transform="translate(37,28)"/>
<path d="M0 0 C1.953125 0.6484375 1.953125 0.6484375 4 2 C4.609375 4.6015625 4.609375 4.6015625 4.75 7.625 C4.80671875 8.62789062 4.8634375 9.63078125 4.921875 10.6640625 C4.94765625 11.43492188 4.9734375 12.20578125 5 13 C3.35 13 1.7 13 0 13 C0.33 12.34 0.66 11.68 1 11 C1.06950541 9.45976004 1.08452357 7.91665012 1.0625 6.375 C1.04896484 5.14910156 1.04896484 5.14910156 1.03515625 3.8984375 C1.02355469 3.27195313 1.01195312 2.64546875 1 2 C0.34 1.67 -0.32 1.34 -1 1 C-0.67 0.67 -0.34 0.34 0 0 Z " fill="#040404" transform="translate(20,29)"/>
<path d="M0 0 C1.65 0.33 3.3 0.66 5 1 C4.67 2.32 4.34 3.64 4 5 C4.99 5.33 5.98 5.66 7 6 C3.33694766 6.74926071 0.57644848 7.2380014 -3 6 C-2.67 5.01 -2.34 4.02 -2 3 C-1.34 3.33 -0.68 3.66 0 4 C0 2.68 0 1.36 0 0 Z M1 1 C1.33 1.66 1.66 2.32 2 3 C2.66 2.67 3.32 2.34 4 2 C3.01 1.67 2.02 1.34 1 1 Z " fill="#202020" transform="translate(58,36)"/>
<path d="M0 0 C2.5 1.1875 2.5 1.1875 5 3 C5.3125 5.6875 5.3125 5.6875 5 8 C2.36 7.34 -0.28 6.68 -3 6 C-3 5.01 -3 4.02 -3 3 C-2.01 2.67 -1.02 2.34 0 2 C0 1.34 0 0.68 0 0 Z " fill="#2B2B2B" transform="translate(62,28)"/>
<path d="M0 0 C0.33 0 0.66 0 1 0 C1 3.3 1 6.6 1 10 C0.01 10 -0.98 10 -2 10 C-3.26066301 6.21801096 -2.42292658 4.63636792 -1 1 C-0.67 0.67 -0.34 0.34 0 0 Z " fill="#050505" transform="translate(42,32)"/>
<path d="M0 0 C1.66666667 1.66666667 3.33333333 3.33333333 5 5 C2.23735711 5.59732819 -0.16032769 6 -3 6 C-3.99 6.495 -3.99 6.495 -5 7 C-3.75023244 3.34683329 -3.32901247 2.21934164 0 0 Z " fill="#2C2C2C" transform="translate(6,28)"/>
<path d="M0 0 C1.5625 1.75 1.5625 1.75 3 4 C2.6875 6.25 2.6875 6.25 2 8 C2 7.01 2 6.02 2 5 C1.34 5 0.68 5 0 5 C0 5.99 0 6.98 0 8 C-0.66 8 -1.32 8 -2 8 C-2.33 5.69 -2.66 3.38 -3 1 C-2.01 0.67 -1.02 0.34 0 0 Z " fill="#3F3F3F" transform="translate(26,28)"/>
<path d="M0 0 C1.65 0 3.3 0 5 0 C5 0.66 5 1.32 5 2 C5.66 2 6.32 2 7 2 C7.33 1.34 7.66 0.68 8 0 C8 0.99 8 1.98 8 3 C5.36 3 2.72 3 0 3 C0 2.01 0 1.02 0 0 Z " fill="#424242" transform="translate(45,25)"/>
</svg>
