<?xml version="1.0" standalone="no"?>
<!DOCTYPE svg PUBLIC "-//W3C//DTD SVG 20010904//EN"
 "http://www.w3.org/TR/2001/REC-SVG-20010904/DTD/svg10.dtd">
<svg version="1.0" xmlns="http://www.w3.org/2000/svg"
 width="32.000000pt" height="32.000000pt" viewBox="0 0 32.000000 32.000000"
 preserveAspectRatio="xMidYMid meet">

<g transform="translate(0.000000,32.000000) scale(0.100000,-0.100000)"
fill="#000000" stroke="none">
<path d="M92 275 l-32 -27 0 -114 0 -114 30 0 c25 0 30 4 30 23 0 12 -9 33
-20 47 -11 14 -20 29 -20 35 0 5 12 -7 27 -28 34 -47 70 -50 101 -7 12 16 22
36 22 44 0 21 -65 32 -113 19 l-38 -10 3 51 c3 48 6 52 41 71 l37 20 38 -20
c36 -20 37 -22 40 -83 2 -50 -1 -68 -18 -91 -31 -44 -27 -71 10 -71 l30 0 0
113 c0 107 -1 115 -24 136 -15 14 -42 25 -68 28 -37 4 -49 1 -76 -22z m81
-162 c-7 -2 -19 -2 -25 0 -7 3 -2 5 12 5 14 0 19 -2 13 -5z"/>
<path d="M115 220 c-3 -5 1 -10 10 -10 9 0 13 5 10 10 -3 6 -8 10 -10 10 -2 0
-7 -4 -10 -10z"/>
<path d="M190 220 c0 -5 5 -10 11 -10 5 0 7 5 4 10 -3 6 -8 10 -11 10 -2 0 -4
-4 -4 -10z"/>
</g>
</svg>
