<?xml version="1.0" standalone="no"?>
<!DOCTYPE svg PUBLIC "-//W3C//DTD SVG 20010904//EN"
 "http://www.w3.org/TR/2001/REC-SVG-20010904/DTD/svg10.dtd">
<svg version="1.0" xmlns="http://www.w3.org/2000/svg"
 width="560.000000pt" height="560.000000pt" viewBox="0 0 560.000000 560.000000"
 preserveAspectRatio="xMidYMid meet">

<g transform="translate(0.000000,560.000000) scale(0.100000,-0.100000)"
fill="#000000" stroke="none">
<path d="M2651 4189 c-214 -19 -456 -109 -650 -242 -105 -72 -285 -253 -353
-357 -289 -438 -324 -955 -97 -1413 72 -145 140 -239 264 -362 241 -242 521
-373 867 -406 314 -30 626 52 908 239 111 73 289 252 363 363 229 345 299 740
202 1129 -144 574 -639 998 -1225 1050 -127 11 -144 11 -279 -1z m99 -405 l0
-316 -117 7 c-145 9 -363 32 -371 39 -3 4 12 49 32 101 69 174 190 345 293
416 45 31 125 68 151 69 9 0 12 -70 12 -316z m199 284 c89 -42 198 -154 268
-274 52 -88 131 -269 121 -279 -7 -7 -238 -33 -370 -41 l-118 -7 0 317 c0 284
2 316 16 316 9 0 46 -14 83 -32z m-489 -16 c0 -5 -14 -21 -31 -38 -71 -67
-187 -271 -241 -420 l-23 -65 -40 7 c-62 10 -305 73 -323 83 -14 9 -3 24 73
98 50 49 122 112 160 141 79 59 236 141 340 177 78 27 85 28 85 17z m795 -29
c165 -60 323 -162 463 -297 105 -101 105 -100 24 -124 -70 -22 -212 -56 -273
-67 -35 -6 -36 -6 -48 37 -37 124 -179 374 -250 442 -57 54 -44 56 84 9z
m-1380 -521 c61 -16 144 -37 186 -46 l76 -17 -13 -57 c-24 -101 -54 -311 -61
-423 l-6 -109 -279 0 -278 0 0 55 c0 149 84 408 186 576 30 49 41 60 58 56 11
-2 71 -18 131 -35z m2057 -52 c88 -154 154 -360 165 -512 l6 -88 -280 0 -280
0 -6 114 c-6 96 -20 197 -64 443 -5 29 -3 33 23 38 76 17 304 76 325 84 46 19
60 9 111 -79z m-1561 -45 c64 -8 175 -17 248 -21 l131 -7 0 -263 0 -264 -300
0 -300 0 0 50 c0 96 50 435 75 508 5 15 5 15 146 -3z m1021 -70 c22 -94 58
-364 58 -435 l0 -50 -300 0 -300 0 0 264 0 263 138 7 c75 4 180 13 232 21 156
22 150 24 172 -70z m-1329 -695 c7 -120 29 -278 53 -382 9 -38 14 -74 11 -81
-3 -8 -43 -22 -89 -32 -45 -10 -135 -33 -198 -51 l-115 -33 -18 22 c-26 33
-123 234 -146 303 -28 87 -61 253 -61 313 l0 51 278 0 279 0 6 -110z m687
-149 l0 -259 -22 -6 c-13 -3 -61 -6 -108 -6 -47 0 -146 -7 -220 -16 -74 -8
-144 -16 -154 -17 -15 -2 -22 9 -32 53 -21 84 -52 299 -60 410 l-7 100 302 0
301 0 0 -259z m700 209 c0 -72 -36 -342 -58 -435 -16 -66 -23 -80 -38 -78 -11
1 -80 9 -154 17 -74 9 -183 16 -242 16 l-108 0 0 265 0 265 300 0 300 0 0 -50z
m648 -34 c-13 -151 -67 -330 -144 -476 -67 -126 -74 -134 -109 -120 -17 7
-106 31 -200 55 -161 40 -170 44 -169 66 0 13 13 93 27 178 15 84 30 204 34
267 l6 114 281 0 282 0 -8 -84z m-1350 -849 l2 -319 -32 7 c-97 21 -229 134
-317 270 -56 87 -146 289 -138 309 4 9 45 18 118 26 118 13 323 28 349 26 13
-1 15 -45 18 -319z m417 297 c88 -9 164 -20 169 -24 14 -14 -54 -177 -117
-285 -70 -120 -179 -231 -268 -274 -37 -17 -74 -31 -83 -31 -14 0 -16 33 -16
320 l0 320 78 -6 c42 -3 149 -12 237 -20z m-986 -86 c18 -60 112 -251 160
-325 22 -35 59 -83 82 -108 23 -25 39 -48 36 -52 -10 -9 -171 53 -264 102 -45
24 -113 65 -150 92 -74 53 -203 170 -234 215 l-20 28 28 11 c50 20 287 78 319
79 28 0 32 -4 43 -42z m1448 6 c76 -20 148 -38 161 -41 12 -3 22 -10 22 -17 0
-6 -44 -54 -98 -106 -102 -99 -219 -183 -337 -242 -79 -40 -224 -92 -232 -84
-3 3 13 26 36 51 81 88 205 311 242 433 16 53 23 54 206 6z"/>
</g>
</svg>
